<svg xmlns="http://www.w3.org/2000/svg" viewBox="0 0 26.00 25.00" data-guides="{&quot;vertical&quot;:[],&quot;horizontal&quot;:[]}"><defs/><path fill="#492f2f" stroke="none" fill-opacity="1" stroke-width="1" stroke-opacity="1" id="tSvg13b25c3ff7b" title="Path 11" d="M18.14 2.5C20.8827 2.5655 23.5559 5.337 23.5 8.08C23.5 14.28 15.73 20.66 13 22.5C10.27 20.65 2.5 14.27 2.5 8.08C2.4441 5.337 5.1173 2.5655 7.86 2.5C9.2574 2.509 10.6006 2.9304 11.5 4C12.0067 4.6 12.4933 5.4 13 6C13.5067 5.4033 13.9933 4.5967 14.5 4C15.3975 2.9267 16.7409 2.5115 18.14 2.5ZM18.14 1C16.1573 1.0063 14.2777 1.8839 13 3.4C11.7223 1.8839 9.8427 1.0063 7.86 1C4.0104 1.0603 0.9388 4.2304 1 8.08C1 16.92 13 24 13 24C13 24 25 16.92 25 8.08C25.0612 4.2304 21.9896 1.0603 18.14 1Z"/></svg>